<?xml version="1.0" encoding="UTF-8" standalone="no"?>
<!DOCTYPE svg PUBLIC "-//W3C//DTD SVG 1.1//EN" "http://www.w3.org/Graphics/SVG/1.1/DTD/svg11.dtd">
<svg width="100%" height="100%" viewBox="0 0 245 245" version="1.1" xmlns="http://www.w3.org/2000/svg" xmlns:xlink="http://www.w3.org/1999/xlink" xml:space="preserve" xmlns:serif="http://www.serif.com/" style="fill-rule:evenodd;clip-rule:evenodd;stroke-linejoin:round;stroke-miterlimit:2;">
    <g transform="matrix(1,0,0,1,-1063.33,-821.597)">
        <g>
            <path d="M1291.4,841.389C1281.12,831.616 1265.77,822.043 1246.77,821.905C1201.73,821.58 1144.68,821.423 1121.54,821.886C1107.08,822.174 1089.19,832.329 1080.02,841.583C1070.84,850.838 1063.42,866.971 1063.4,880.212C1063.36,904.419 1063.63,962.701 1063.33,1008.36C1063.22,1025.04 1071.89,1039.31 1081.11,1048.52C1090.34,1057.74 1105.17,1066.5 1124.42,1066.5C1170.02,1066.5 1222.57,1066.56 1246.82,1066.56C1263.64,1066.56 1279.88,1056.95 1289.66,1047.75C1299.43,1038.54 1308.02,1025.88 1308.02,1008.2C1308.02,962.525 1307.97,904.446 1307.97,880.214C1307.97,864.803 1301.69,851.162 1291.4,841.389ZM1185.6,876.415C1223.3,876.415 1253.91,907.027 1253.91,944.732C1253.91,982.437 1223.3,1013.05 1185.6,1013.05C1147.89,1013.05 1117.28,982.437 1117.28,944.732C1117.28,907.027 1147.89,876.415 1185.6,876.415ZM1267.02,848.461C1275.09,848.461 1281.63,855.011 1281.63,863.078C1281.63,871.145 1275.09,877.694 1267.02,877.694C1258.95,877.694 1252.4,871.145 1252.4,863.078C1252.4,855.011 1258.95,848.461 1267.02,848.461Z"/>
            <g transform="matrix(1,0,0,1,9.63442,3.7346)">
                <circle cx="1176.31" cy="940.314" r="41.168"/>
            </g>
        </g>
    </g>
</svg>
