<?xml version="1.0" encoding="UTF-8" standalone="no"?>
<!DOCTYPE svg PUBLIC "-//W3C//DTD SVG 1.1//EN" "http://www.w3.org/Graphics/SVG/1.1/DTD/svg11.dtd">
<svg width="100%" height="100%" viewBox="0 0 245 245" version="1.1" xmlns="http://www.w3.org/2000/svg" xmlns:xlink="http://www.w3.org/1999/xlink" xml:space="preserve" xmlns:serif="http://www.serif.com/" style="fill-rule:evenodd;clip-rule:evenodd;stroke-linejoin:round;stroke-miterlimit:2;">
    <g transform="matrix(1,0,0,1,-737.683,-821.742)">
        <g transform="matrix(0.994118,0,0,0.994118,6.3275,3.83937)">
            <path d="M977.465,830.745C973.208,825.009 967.084,822.971 958.284,822.902C907.446,822.506 790.052,822.987 759.026,822.865C753.107,822.842 746.125,825.757 742.214,829.435C738.302,833.113 735.675,837.639 735.695,844.783C735.801,882.709 735.623,1005.49 735.706,1051.39C735.717,1057.29 737.957,1061.05 740.884,1063.98C743.812,1066.91 747.382,1068.98 753.272,1068.96C777.752,1068.91 867.407,1068.97 867.407,1068.97L867.462,975.21L835.239,975.243L835.244,937.151L867.478,937.164C867.478,937.164 867.45,909.792 867.451,899.039C867.452,890.622 871.342,880.597 878.753,873.623C884.544,868.173 895.782,861.069 908.477,860.987C919.152,860.917 943.627,860.976 943.627,860.976L943.617,896.12C943.617,896.12 923.138,895.995 917.254,896.117C914.119,896.182 910.292,897.184 908.346,899.136C906.4,901.088 905.599,904.788 905.579,907.829C905.538,914.218 905.559,937.156 905.559,937.156L940.733,937.15L940.733,975.268L905.538,975.243L905.582,1068.99C905.582,1068.99 953.073,1068.98 961.253,1068.95C968.473,1068.92 972.394,1067.74 975.84,1064.34C979.959,1060.28 981.658,1057.2 981.728,1048.59C982.13,999.799 981.661,878.126 981.78,846.497C981.802,840.51 981.055,835.58 977.465,830.745Z"/>
        </g>
    </g>
</svg>
