<?xml version="1.0" encoding="UTF-8" standalone="no"?>
<!DOCTYPE svg PUBLIC "-//W3C//DTD SVG 1.1//EN" "http://www.w3.org/Graphics/SVG/1.1/DTD/svg11.dtd">
<svg width="100%" height="100%" viewBox="0 0 255 204" version="1.1" xmlns="http://www.w3.org/2000/svg" xmlns:xlink="http://www.w3.org/1999/xlink" xml:space="preserve" xmlns:serif="http://www.serif.com/" style="fill-rule:evenodd;clip-rule:evenodd;stroke-linejoin:round;stroke-miterlimit:2;">
    <g transform="matrix(1,0,0,1,-1371.72,-842.436)">
        <g transform="matrix(1.03902,0,0,0.829608,607.467,159.793)">
            <path d="M978.878,823.562C978.878,823.562 962.347,834.875 956.19,837.809C946.834,842.269 940.023,844.138 940.023,844.138C940.023,844.138 927.387,828.046 910.916,823.954C901.335,821.574 886.329,822.693 873.942,830.781C865.484,836.303 858.312,846.697 854.97,853.526C844.49,874.938 846.079,899.662 846.079,899.662C846.079,899.662 821.59,896.152 805.614,889.615C796.086,885.717 785.275,877.249 774.462,865.665C761.368,851.639 751.568,835.327 751.568,835.327C751.568,835.327 745.213,870.208 752.361,891.221C759.937,913.493 781.519,924.443 781.519,924.443C781.519,924.443 776.894,929.014 766.944,926.815C758.017,924.842 749.295,916.404 749.295,916.404C749.295,916.404 747.533,938.607 761.533,954.32C772.556,966.692 794.506,974.692 794.506,974.692C794.506,974.692 790.293,976.57 779.07,976.94C768.001,977.305 759.711,975.789 759.711,975.789C759.711,975.789 763.396,992.314 778.362,1003.39C792.627,1013.95 809.27,1015.83 809.27,1015.83C809.27,1015.83 795.56,1028.21 779.848,1032.66C764.333,1037.06 735.557,1036.75 735.557,1036.75C735.557,1036.75 750.685,1051.64 772.69,1060.3C785.892,1065.5 808.783,1068.16 822.085,1068.38C844.035,1068.75 893.094,1054.42 925.947,1004.76C941.402,981.394 951.268,954.798 954.909,929.583C957.139,914.134 956.719,884.739 956.719,884.739C956.719,884.739 963.134,880.025 969.509,872.07C975.145,865.036 980.529,853.673 980.529,853.673C980.529,853.673 973.101,857.843 967.461,859.696C962.054,861.471 954.443,862.009 954.443,862.009C954.443,862.009 965.441,852.206 971.289,843.924C978.025,834.383 978.878,823.562 978.878,823.562Z"/>
        </g>
    </g>
</svg>
